<?xml version="1.0" standalone="no"?>
<!DOCTYPE svg PUBLIC "-//W3C//DTD SVG 20010904//EN"
 "http://www.w3.org/TR/2001/REC-SVG-20010904/DTD/svg10.dtd">
<svg version="1.0" xmlns="http://www.w3.org/2000/svg"
 width="70.000000pt" height="70.000000pt" viewBox="0 0 70.000000 70.000000"
 preserveAspectRatio="xMidYMid meet">
<metadata>
Created by potrace 1.11, written by Peter Selinger 2001-2013
</metadata>
<g transform="translate(0.000000,70.000000) scale(0.100000,-0.100000)"
fill="#000000" stroke="none">
<path d="M280 571 c-46 -14 -89 -41 -101 -63 -18 -33 -4 -154 21 -180 l20 -22
0 42 0 42 73 0 c53 0 83 5 112 20 22 11 45 18 51 16 6 -2 14 -23 18 -45 9 -60
32 -53 47 14 13 57 3 105 -22 105 -6 0 -20 12 -32 26 -36 47 -117 66 -187 45z"/>
<path d="M256 352 c-3 -4 11 -9 30 -9 18 -1 31 3 28 8 -7 11 -51 12 -58 1z"/>
<path d="M386 352 c-2 -4 11 -8 30 -8 20 0 29 3 21 8 -16 10 -44 10 -51 0z"/>
<path d="M272 319 c2 -6 8 -10 13 -10 5 0 11 4 13 10 2 6 -4 11 -13 11 -9 0
-15 -5 -13 -11z"/>
<path d="M402 319 c2 -6 8 -10 13 -10 5 0 11 4 13 10 2 6 -4 11 -13 11 -9 0
-15 -5 -13 -11z"/>
<path d="M223 233 c29 -48 82 -103 99 -103 7 0 -2 9 -20 20 -18 11 -42 39 -54
65 -12 24 -27 46 -34 49 -7 3 -2 -11 9 -31z"/>
<path d="M452 219 c-13 -26 -37 -57 -55 -68 -33 -21 -31 -29 4 -11 23 13 100
127 85 127 -6 -1 -21 -22 -34 -48z"/>
<path d="M310 206 c0 -2 8 -10 18 -17 15 -13 16 -12 3 4 -13 16 -21 21 -21 13z"/>
<path d="M360 190 c-9 -6 -10 -10 -3 -10 6 0 15 5 18 10 8 12 4 12 -15 0z"/>
</g>
</svg>
